# Blender 3.5.1
# www.blender.org
mtllib untitled.mtl
o Circle
v 0.000000 0.000000 -1.000000
v -0.195090 0.000000 -0.980785
v -0.382683 0.000000 -0.923880
v -0.555570 0.000000 -0.831470
v -0.707107 0.000000 -0.707107
v -0.831470 0.000000 -0.555570
v -0.923880 0.000000 -0.382683
v -0.980785 0.000000 -0.195090
v -1.000000 0.000000 0.000000
v -0.980785 0.000000 0.195090
v -0.923880 0.000000 0.382683
v -0.831470 0.000000 0.555570
v -0.707107 0.000000 0.707107
v -0.555570 0.000000 0.831470
v -0.382683 0.000000 0.923880
v -0.195090 0.000000 0.980785
v 0.000000 0.000000 1.000000
v 0.195090 0.000000 0.980785
v 0.382683 0.000000 0.923880
v 0.555570 0.000000 0.831470
v 0.707107 0.000000 0.707107
v 0.831470 0.000000 0.555570
v 0.923880 0.000000 0.382683
v 0.980785 0.000000 0.195090
v 1.000000 0.000000 0.000000
v 0.980785 0.000000 -0.195090
v 0.923880 0.000000 -0.382683
v 0.831470 0.000000 -0.555570
v 0.707107 0.000000 -0.707107
v 0.555570 0.000000 -0.831470
v 0.382683 0.000000 -0.923880
v 0.195090 0.000000 -0.980785
vn -0.0000 -1.0000 -0.0000
vt 0.000000 0.000000
vt 0.000000 0.000000
vt 0.000000 0.000000
vt 0.000000 0.000000
vt 0.000000 0.000000
vt 0.000000 0.000000
vt 0.000000 0.000000
vt 0.000000 0.000000
vt 0.000000 0.000000
vt 0.000000 0.000000
vt 0.000000 0.000000
vt 0.000000 0.000000
vt 0.000000 0.000000
vt 0.000000 0.000000
vt 0.000000 0.000000
vt 0.000000 0.000000
vt 0.000000 0.000000
vt 0.000000 0.000000
vt 0.000000 0.000000
vt 0.000000 0.000000
vt 0.000000 0.000000
vt 0.000000 0.000000
vt 0.000000 0.000000
vt 0.000000 0.000000
vt 0.000000 0.000000
vt 0.000000 0.000000
vt 0.000000 0.000000
vt 0.000000 0.000000
vt 0.000000 0.000000
vt 0.000000 0.000000
vt 0.000000 0.000000
vt 0.000000 0.000000
s 0
f 2/2/1 1/1/1 32/32/1
f 3/3/1 2/2/1 32/32/1
f 13/13/1 20/20/1 15/15/1
f 32/32/1 31/31/1 30/30/1
f 4/4/1 32/32/1 30/30/1
f 5/5/1 4/4/1 30/30/1
f 4/4/1 3/3/1 32/32/1
f 30/30/1 29/29/1 28/28/1
f 6/6/1 30/30/1 28/28/1
f 7/7/1 6/6/1 28/28/1
f 7/7/1 28/28/1 27/27/1
f 8/8/1 7/7/1 27/27/1
f 8/8/1 27/27/1 26/26/1
f 9/9/1 8/8/1 26/26/1
f 9/9/1 26/26/1 25/25/1
f 10/10/1 9/9/1 25/25/1
f 10/10/1 25/25/1 24/24/1
f 11/11/1 10/10/1 24/24/1
f 11/11/1 24/24/1 23/23/1
f 12/12/1 11/11/1 23/23/1
f 12/12/1 23/23/1 22/22/1
f 13/13/1 12/12/1 22/22/1
f 21/21/1 20/20/1 22/22/1
f 6/6/1 5/5/1 30/30/1
f 20/20/1 13/13/1 22/22/1
f 14/14/1 13/13/1 15/15/1
f 15/15/1 20/20/1 19/19/1
f 16/16/1 15/15/1 19/19/1
f 16/16/1 19/19/1 18/18/1
f 17/17/1 16/16/1 18/18/1
